# xmcd CD database file
#
# Track frame offsets:
#	150
#	25710
#	46411
#	55803
#	77671
#	89952
#	116343
#	139057
#
# Disc length: 2031 seconds
#
# Revision: 1
# Processed by: cddbd v1.5.1PL0 Copyright (c) Steve Scherf et al.
# Submitted via: CDex 1.51
#
DISCID=6407ed08
DTITLE=Dave Brubeck Quartet - Jazz Impressions Of Japan
DYEAR=1965
DGENRE=Jazz
TTITLE0=Tokyo Traffic
TTITLE1=Rising Sun
TTITLE2=Toki's Theme
TTITLE3=Fujiyama
TTITLE4=Zen Is When
TTITLE5=The City Is Crying
TTITLE6=Osaka Blues
TTITLE7=Koto Song
EXTD=YEAR: 1965
EXTT0=
EXTT1=
EXTT2=
EXTT3=
EXTT4=
EXTT5=
EXTT6=
EXTT7=
PLAYORDER=
